<?xml version="1.0" encoding="UTF-8" standalone="no"?>
<svg
   xmlns:dc="http://purl.org/dc/elements/1.1/"
   xmlns:cc="http://creativecommons.org/ns#"
   xmlns:rdf="http://www.w3.org/1999/02/22-rdf-syntax-ns#"
   xmlns:svg="http://www.w3.org/2000/svg"
   xmlns="http://www.w3.org/2000/svg"
   xmlns:sodipodi="http://sodipodi.sourceforge.net/DTD/sodipodi-0.dtd"
   xmlns:inkscape="http://www.inkscape.org/namespaces/inkscape"
   sodipodi:docname="logotipocuida.svg"
   inkscape:version="1.0 (4035a4fb49, 2020-05-01)"
   width="296.23648"
   height="78.459114"
   viewBox="0 0 296.23648 78.459114"
   version="1.1"
   id="SVGRoot">
  <defs
     id="defs174">
    <rect
       id="rect203"
       height="103.14285"
       width="229.71429"
       y="31.14286"
       x="147.42857" />
  </defs>
  <sodipodi:namedview
     inkscape:showpageshadow="true"
     showborder="false"
     inkscape:pagecheckerboard="false"
     inkscape:window-maximized="1"
     inkscape:window-y="-8"
     inkscape:window-x="-8"
     inkscape:window-height="705"
     inkscape:window-width="1366"
     showgrid="false"
     inkscape:document-rotation="0"
     inkscape:current-layer="g224"
     inkscape:document-units="px"
     inkscape:cy="52.916843"
     inkscape:cx="141.88621"
     inkscape:zoom="2.8"
     inkscape:pageshadow="2"
     inkscape:pageopacity="0"
     borderopacity="1.0"
     bordercolor="#666666"
     pagecolor="#ffffff"
     id="base"
     inkscape:snap-global="false"
     fit-margin-top="0"
     fit-margin-left="0"
     fit-margin-right="0"
     fit-margin-bottom="0" />
  <metadata
     id="metadata177">
    <rdf:RDF>
      <cc:Work
         rdf:about="">
        <dc:format>image/svg+xml</dc:format>
        <dc:type
           rdf:resource="http://purl.org/dc/dcmitype/StillImage" />
        <dc:title></dc:title>
      </cc:Work>
    </rdf:RDF>
  </metadata>
  <g
     id="layer1"
     inkscape:groupmode="layer"
     inkscape:label="Capa 1"
     transform="translate(-115.90728,-29.562387)">
    <text
       style="font-style:normal;font-weight:normal;font-size:40px;line-height:1.25;font-family:sans-serif;white-space:pre;shape-inside:url(#rect203);fill:#000000;fill-opacity:1;stroke:none;"
       id="text201"
       xml:space="preserve" />
    <text
       id="text209"
       y="88.571419"
       x="215.35715"
       style="font-style:normal;font-weight:normal;font-size:40px;line-height:1.25;font-family:sans-serif;fill:#000000;fill-opacity:1;stroke:none"
       xml:space="preserve"><tspan
         y="88.571419"
         x="215.35715"
         id="tspan207"
         sodipodi:role="line" /></text>
    <g
       id="g224"
       transform="translate(2.8571429,1.4285714)">
      <g
         transform="translate(253.92857,-6.4285724)"
         id="g1873">
        <path
           id="path1887"
           d="m -129.21198,112.68561 c -0.55024,-0.34166 -0.53327,-0.3875 0.4248,-1.14747 0.54887,-0.43538 1.2877,-0.79524 1.64184,-0.7997 0.35415,-0.004 0.90621,-0.17658 1.22681,-0.38249 0.32059,-0.20591 0.79355,-0.37827 1.05102,-0.38303 0.25746,-0.005 1.00864,-0.23036 1.66928,-0.50133 0.66064,-0.27098 1.43764,-0.49658 1.72668,-0.50134 0.28903,-0.005 0.52551,-0.1078 0.52551,-0.229 0,-0.12119 0.60809,-0.41755 1.35131,-0.65857 0.74322,-0.24102 1.35131,-0.52484 1.35131,-0.63071 0,-0.10586 0.777,-0.40655 1.72668,-0.66818 1.48608,-0.40942 5.02655,-1.9786 5.48032,-2.42894 0.0826,-0.082 0.61692,-0.36986 1.18742,-0.63979 0.57049,-0.26993 1.51641,-0.75107 2.10204,-1.06919 0.58562,-0.31813 1.32633,-0.71974 1.64601,-0.89248 0.31969,-0.17273 1.14559,-0.74436 1.83533,-1.27028 0.68975,-0.525924 1.37411,-0.956552 1.5208,-0.956958 0.14669,-5.1e-4 0.53697,-0.344311 0.86729,-0.764242 0.33032,-0.419932 0.7695,-0.76384 0.97595,-0.764243 0.60026,-0.0013 0.43303,-0.715802 -0.20793,-0.888546 -0.37367,-0.100707 -1.29831,0.176444 -2.57297,0.771219 -1.91033,0.891384 -2.15958,0.938048 -6.24835,1.169836 -2.34226,0.132777 -5.00188,0.176796 -5.91026,0.09782 -0.90838,-0.07898 -3.07048,-0.24159 -4.80466,-0.361357 -3.14703,-0.21734 -6.80216,-0.874201 -7.34213,-1.319445 -0.1569,-0.129378 -0.76499,-0.239127 -1.35131,-0.243885 -0.58632,-0.0048 -1.60656,-0.230358 -2.2672,-0.501333 -0.66065,-0.270975 -1.50705,-0.496574 -1.8809,-0.501333 -0.37385,-0.0048 -0.91438,-0.110011 -1.20117,-0.233894 -0.85806,-0.370654 -1.95959,-0.742433 -3.07391,-1.037487 -0.57806,-0.153062 -1.55273,-0.662335 -2.16593,-1.131722 -1.07068,-0.819581 -1.10046,-0.887001 -0.75073,-1.699881 0.2003,-0.46555 0.80271,-1.255166 1.33869,-1.754707 0.53599,-0.499542 0.97516,-0.980935 0.97595,-1.069761 7.9e-4,-0.08883 0.2717,-0.221517 0.60202,-0.294868 0.33032,-0.07335 0.60058,-0.316226 0.60058,-0.539725 0,-0.223498 0.2027,-0.40636 0.45044,-0.40636 0.24774,0 0.45044,-0.17212 0.45044,-0.382489 0,-0.210369 0.10412,-0.382488 0.23138,-0.382488 0.12725,0 1.39694,-0.946659 2.82152,-2.103687 2.67243,-2.170517 4.2333,-3.251152 4.69598,-3.251152 0.14625,0 0.51049,-0.229493 0.80943,-0.509985 0.29893,-0.280491 0.72527,-0.509984 0.94741,-0.509984 0.22214,0 0.4039,-0.106306 0.4039,-0.236238 0,-0.129931 0.74322,-0.54501 1.6516,-0.922396 0.90838,-0.377389 1.6516,-0.774669 1.6516,-0.88285 0,-0.10818 0.48677,-0.274234 1.08171,-0.369007 0.59494,-0.09477 0.99934,-0.242255 0.89868,-0.327734 -0.22817,-0.193753 5.9436,-2.361621 6.72337,-2.361621 0.31341,0 0.64751,-0.106717 0.74244,-0.237146 0.0949,-0.130431 0.94747,-0.308074 1.89454,-0.394764 0.94707,-0.08669 2.46517,-0.352899 3.37355,-0.591579 1.38273,-0.363313 2.7271,-0.423053 8.25802,-0.366947 4.82251,0.04892 6.971303,0.168356 7.957725,0.442317 0.743221,0.206414 2.485615,0.61163 3.871983,0.90048 1.386371,0.28885 2.801534,0.692228 3.144806,0.896395 0.343273,0.204167 0.923919,0.371213 1.290323,0.371213 0.366404,0 0.749705,0.114746 0.85178,0.254992 0.102075,0.140246 0.562065,0.254992 1.022202,0.254992 0.460136,0 1.081193,0.229494 1.380131,0.509985 0.298937,0.280492 0.717609,0.509985 0.930387,0.509985 0.212778,0 0.588818,0.244831 0.835648,0.544067 0.388992,0.471587 0.505941,0.495526 0.87787,0.179703 0.498144,-0.422999 0.712556,-1.370716 1.144459,-5.05864 0.473298,-4.041393 0.16643,-8.366588 -0.76417,-10.770773 -0.420153,-1.085446 -0.852789,-2.445509 -0.96142,-3.022365 -0.10863,-0.576854 -0.852629,-2.155812 -1.653336,-3.508796 -0.800703,-1.352982 -1.456867,-2.603403 -1.458144,-2.77871 -0.0012,-0.175307 -0.151902,-0.318741 -0.334735,-0.318741 -0.182829,0 -0.252674,-0.176462 -0.155208,-0.392139 0.100973,-0.223435 -0.01502,-0.454777 -0.269578,-0.537728 -0.245735,-0.08007 -0.666272,-0.53834 -0.934531,-1.018376 -0.268257,-0.480033 -1.078407,-1.403776 -1.800335,-2.052759 -0.721925,-0.648984 -1.312593,-1.320639 -1.312593,-1.492567 0,-0.171931 -0.343167,-0.503534 -0.762596,-0.736897 -0.419429,-0.233362 -0.978936,-0.80953 -1.243351,-1.28037 -0.264419,-0.470841 -0.811007,-1.006157 -1.214641,-1.18959 -0.403636,-0.183433 -1.003397,-0.654913 -1.332802,-1.047734 -0.329401,-0.392821 -1.005943,-0.89295 -1.503418,-1.111398 -0.830655,-0.36475 -0.951345,-0.361186 -1.478152,0.04365 -0.315505,0.242456 -0.915268,1.054024 -1.332805,1.803484 -0.417538,0.74946 -0.868642,1.362655 -1.002452,1.362655 -0.336527,0 -0.940279,1.183121 -0.940279,1.84259 0,0.714524 -0.651419,2.275661 -1.12806,2.703408 -0.614727,0.551668 -0.891091,1.124029 -1.127661,2.335426 -0.122885,0.629252 -0.416492,1.604598 -0.652457,2.167435 -0.58658,1.399137 -1.27209,4.627756 -1.24595,5.868191 0.0656,3.113023 -0.45412,11.519013 -0.72993,11.805701 -0.64095,0.666216 -1.55053,0.23291 -2.03312,-0.968527 -0.2535,-0.631106 -0.60912,-1.376959 -0.79027,-1.65745 -0.18115,-0.280492 -0.42079,-0.911598 -0.53253,-1.402458 -0.11174,-0.49086 -0.31928,-1.121966 -0.46121,-1.402458 -0.74004,-1.462539 -0.90829,-2.565921 -0.90985,-5.966621 -0.002,-3.765902 0.53266,-8.950429 0.92255,-8.950429 0.11667,0 0.30769,-0.545046 0.42448,-1.211214 0.11679,-0.666167 0.31742,-1.32596 0.44584,-1.466205 0.12843,-0.140246 0.41136,-0.886099 0.62875,-1.65745 0.21738,-0.771352 0.70775,-1.943689 1.08971,-2.605196 0.38195,-0.661504 0.69446,-1.407723 0.69446,-1.658264 0,-0.250541 0.47296,-1.020406 1.05102,-1.710811 0.57806,-0.690406 1.05102,-1.479357 1.05102,-1.753226 0,-0.273869 0.43918,-0.936504 0.975949,-1.472522 0.536771,-0.536019 1.651603,-1.672452 2.477405,-2.525408 0.825802,-0.852956 1.805824,-1.616963 2.177829,-1.697793 1.030279,-0.223862 3.016035,0.711179 5.029168,2.368103 0.990963,0.815619 2.27743,1.772051 2.858815,2.125405 0.98168,0.596644 3.676599,2.983263 6.900661,6.111226 0.743222,0.721067 1.824271,2.023335 2.402332,2.89393 0.578062,0.870595 1.392879,2.041683 1.810704,2.602421 0.417826,0.560738 0.922181,1.249016 1.120791,1.529508 0.622438,0.87906 1.572879,2.637821 1.572879,2.910569 0,0.143622 0.256713,0.694963 0.570476,1.225205 0.313762,0.530238 0.734954,1.767298 0.935984,2.749018 0.201028,0.981721 0.627955,2.338338 0.948724,3.014708 0.320771,0.676367 0.526321,1.364846 0.456779,1.529954 -0.06954,0.165105 0.09139,0.759178 0.35762,1.320161 0.735156,1.549051 0.703884,10.09164 -0.04145,11.322587 -0.289031,0.477346 -0.52551,1.226353 -0.52551,1.66446 0,0.438107 -0.184037,1.022899 -0.408967,1.299533 -0.224934,0.276636 -0.573635,1.47832 -0.774897,2.670409 -0.382127,2.263363 -1.4197,4.813844 -2.617242,6.433489 -0.386796,0.523135 -0.703268,1.045364 -0.703268,1.160511 0,0.115147 -0.540524,0.915723 -1.201166,1.779056 -0.660641,0.863335 -1.201166,1.648872 -1.201166,1.745639 0,0.155933 -0.847186,1.079515 -2.594024,2.827949 -0.307471,0.30775 -0.896865,0.930418 -1.309766,1.383708 -1.030694,1.131511 -3.098739,2.757556 -4.602944,3.619166 -0.689007,0.39467 -1.523004,0.93017 -1.853325,1.19001 -2.089221,1.64343 -7.117651,3.81721 -9.684402,4.18655 -0.839844,0.12085 -0.975948,0.0669 -0.975948,-0.38705 0,-0.31007 0.24344,-0.58154 0.590638,-0.65864 0.324852,-0.0721 0.662506,-0.32343 0.750344,-0.55844 0.08784,-0.235 0.531489,-0.6154 0.985893,-0.84532 1.41177,-0.71435 2.232197,-1.4984 2.031842,-1.94175 -0.102508,-0.22684 -0.102117,-0.34088 9.01e-4,-0.25343 0.368271,0.31272 1.624784,-0.48791 2.975541,-1.895959 0.755353,-0.787393 1.618893,-1.497796 1.91898,-1.578672 0.300087,-0.08088 0.735036,-0.55699 0.966554,-1.058032 0.231519,-0.501042 0.670515,-1.024406 0.975552,-1.163028 0.305036,-0.138624 0.798484,-0.731647 1.096553,-1.317826 0.29807,-0.586178 0.829718,-1.28437 1.18144,-1.551539 0.351726,-0.267165 0.639498,-0.593305 0.639498,-0.724757 0,-0.131448 0.270263,-0.530753 0.600583,-0.88734 0.330321,-0.356586 0.600583,-0.819035 0.600583,-1.027662 0,-0.588428 -0.78161,0.05929 -1.961441,1.625436 -0.549795,0.729818 -1.260146,1.397154 -1.578561,1.482969 -0.318411,0.08581 -0.819967,0.609918 -1.114571,1.164677 -0.294601,0.554759 -0.844035,1.18024 -1.220964,1.389956 -0.376929,0.209718 -0.772248,0.613855 -0.878482,0.898082 -0.106237,0.284228 -0.381995,0.516778 -0.612793,0.516778 -0.230801,0 -0.551446,0.209135 -0.712547,0.464744 -0.1611,0.255609 -0.84151,0.787574 -1.512022,1.182144 -0.670545,0.39457 -1.219148,0.873909 -1.219148,1.065209 0,0.19129 -0.17458,0.34781 -0.387958,0.34781 -0.213375,0 -1.057945,0.52249 -1.876822,1.1611 -0.818875,0.63861 -2.433242,1.63501 -3.587482,2.21422 -1.154242,0.57921 -2.235292,1.14507 -2.402332,1.25748 -0.16704,0.1124 -0.70911,0.47502 -1.20459,0.80581 -0.49548,0.3308 -1.53961,0.78364 -2.32028,1.00632 -0.78067,0.22268 -1.86172,0.69067 -2.40233,1.03999 -0.54061,0.34932 -1.38832,0.71725 -1.8838,0.81763 -0.49548,0.10038 -1.03601,0.26648 -1.20117,0.36911 -0.16516,0.10263 -0.80703,0.3252 -1.42638,0.4946 -0.61936,0.1694 -1.1261,0.40308 -1.1261,0.51929 0,0.11621 -0.70944,0.29047 -1.57653,0.38725 -1.96243,0.21903 -4.45056,0.88048 -4.97626,1.32289 -0.22623,0.1904 -1.07705,0.33395 -1.97924,0.33395 -0.87034,0 -2.24578,0.17088 -3.05654,0.37973 -1.85179,0.47702 -3.14764,0.48682 -3.88436,0.0294 z m 32.575146,-17.865009 c 0.338243,-0.259932 0.614989,-0.613017 0.614989,-0.784635 0,-0.171617 0.405393,-0.45462 0.900874,-0.628895 0.495481,-0.174274 0.900875,-0.429863 0.900875,-0.567975 0,-0.234608 1.471236,-1.945538 2.322941,-2.701391 0.208826,-0.185323 0.379683,-0.500876 0.379683,-0.701229 0,-0.20035 0.132558,-0.364274 0.294571,-0.364274 0.162013,0 0.378145,-0.282754 0.480289,-0.628345 0.102147,-0.345588 0.419489,-0.691345 0.705205,-0.768348 0.461716,-0.124436 1.823142,-2.035774 1.823142,-2.559549 0,-0.111645 0.337828,-0.579095 0.750729,-1.038775 0.412901,-0.459679 0.750729,-1.009716 0.750729,-1.222305 0,-0.584629 -1.897011,-1.691673 -3.200219,-1.867561 -0.634706,-0.08567 -1.485894,-0.338362 -1.891534,-0.561549 -0.630432,-0.346872 -1.960492,-0.405051 -9.15973,-0.40066 -7.49161,0.0046 -8.50415,0.05388 -9.16384,0.446237 -0.4079,0.242605 -1.04939,0.441101 -1.42555,0.441101 -0.37615,0 -0.68391,0.110325 -0.68391,0.245165 0,0.13484 -0.57431,0.365623 -1.27624,0.512853 -1.11136,0.233109 -3.66109,1.182379 -6.68149,2.487534 -0.49548,0.214104 -1.37383,0.696129 -1.95189,1.071169 -0.57806,0.375038 -1.55776,0.943518 -2.17711,1.263288 -0.61936,0.319771 -1.1261,0.679055 -1.1261,0.798412 0,0.119357 -0.23819,0.281205 -0.5293,0.359667 -0.29112,0.07846 -1.40596,0.822329 -2.47741,1.653043 l -1.9481,1.510394 1.10556,0.400213 c 0.60806,0.220117 1.19034,0.516698 1.29396,0.659068 0.10362,0.14237 0.40627,0.258856 0.67255,0.258856 0.26628,0 0.70783,0.1719 0.98124,0.382004 0.30648,0.235523 1.40945,0.441289 2.87641,0.536616 1.47347,0.09575 3.12244,0.404249 4.33121,0.810309 1.89015,0.634951 2.20035,0.658513 9.80555,0.744761 6.734,0.07637 7.91893,0.03363 8.31164,-0.299838 0.57016,-0.484154 2.412019,-0.509 2.871636,-0.03874 0.188232,0.192593 0.261887,0.527982 0.163674,0.745312 -0.241002,0.533301 0.558617,0.420033 1.354966,-0.191935 z m 14.423803,-6.209685 c -0.004,-0.371593 -0.04483,-0.378325 -0.295694,-0.0487 -0.380049,0.499369 -0.380049,0.836931 0,0.637481 0.16516,-0.08668 0.298222,-0.351629 0.295694,-0.588781 z"
           style="fill:#d1f8f9;stroke-width:0.276717" />
        <path
           id="path1885"
           d="m -127.60744,112.09275 c -0.43248,-0.44249 -0.0415,-0.70772 1.61883,-1.09821 0.61238,-0.14402 1.19466,-0.37348 1.29396,-0.50991 0.0993,-0.13644 0.40017,-0.24807 0.6686,-0.24807 0.44113,0 1.52383,-0.36994 4.13103,-1.41152 0.49548,-0.19795 1.2387,-0.47742 1.6516,-0.62105 0.4129,-0.14363 0.95343,-0.3639 1.20117,-0.4895 0.24774,-0.1256 1.46392,-0.65741 2.70262,-1.18179 1.2387,-0.52439 2.31975,-1.02666 2.40233,-1.11615 0.0826,-0.0895 0.48798,-0.30298 0.90088,-0.47442 0.4129,-0.17143 1.00795,-0.45596 1.32233,-0.63229 0.31438,-0.17632 1.59813,-0.89753 2.85277,-1.60267 1.25464,-0.70515 3.36221,-2.02426 4.6835,-2.931365 2.923006,-2.006741 8.845464,-6.892707 8.853082,-7.303707 0.003,-0.163618 0.112462,-0.335738 0.243173,-0.382488 0.130711,-0.04675 0.636654,-0.543983 1.124319,-1.104966 0.487664,-0.560983 1.056375,-1.111731 1.263801,-1.223884 0.207426,-0.112153 0.377139,-0.314135 0.377139,-0.448853 0,-0.134715 0.445789,-0.788806 0.990641,-1.453535 0.544852,-0.664729 1.258324,-1.667583 1.585494,-2.228566 0.327168,-0.560983 0.811223,-1.306836 1.075675,-1.65745 0.264451,-0.350615 0.564299,-0.943763 0.666323,-1.318107 0.157028,-0.576152 0.03047,-0.761986 -0.82452,-1.210688 -0.555512,-0.291535 -1.467483,-0.603834 -2.026599,-0.694 -0.559118,-0.09016 -1.286839,-0.283013 -1.61716,-0.42855 -0.734888,-0.323787 -5.259994,-0.8498 -9.309038,-1.082119 -2.22667,-0.127756 -3.66877,-0.06555 -5.5788,0.240647 -1.41673,0.227116 -2.96121,0.41294 -3.43218,0.41294 -0.86465,0 -4.00409,0.782214 -5.74869,1.432327 -0.52044,0.19394 -1.06352,0.352619 -1.20683,0.352619 -0.61936,0 -5.08252,2.092502 -7.92843,3.717148 -2.74139,1.564984 -7.79874,5.262069 -7.77808,5.686038 0.0144,0.295599 4.53916,1.782029 7.0491,2.315697 4.10112,0.871989 5.34616,1.085158 8.25802,1.413894 5.81664,0.656672 7.24501,0.693179 11.26093,0.287812 2.14709,-0.216723 4.34297,-0.470698 4.87974,-0.564382 2.387058,-0.416629 0.05614,1.715803 -2.7777,2.541164 -6.89017,2.006782 -14.63403,2.136803 -22.82215,0.38319 -0.66065,-0.141485 -1.87683,-0.361854 -2.70263,-0.48971 -0.8258,-0.127853 -1.77172,-0.338704 -2.10204,-0.468559 -0.33032,-0.129852 -1.5465,-0.484926 -2.70262,-0.78905 -1.15613,-0.304125 -2.575,-0.732902 -3.15306,-0.952838 -2.15551,-0.820106 -3.65721,-1.484471 -3.80645,-1.683992 -0.44443,-0.594178 0.61418,-1.798461 4.48889,-5.106573 5.30696,-4.53092 9.30768,-7.081812 14.33213,-9.138287 3.87093,-1.584344 5.00521,-1.996406 5.49549,-1.996406 0.2612,0 0.54895,-0.10174 0.63945,-0.226087 0.0905,-0.124347 0.67279,-0.305343 1.29396,-0.402212 0.62118,-0.09687 1.7375,-0.329047 2.48073,-0.515949 2.29241,-0.576491 7.51792,-1.152371 10.4487,-1.151507 5.196239,0.0015 14.161311,1.532089 17.47841,2.983987 0.412901,0.180728 0.88586,0.328983 1.05102,0.329457 0.675575,0.002 2.811843,1.159649 3.236516,1.753963 0.412994,0.577975 0.403934,0.734043 -0.09716,1.674039 -0.30394,0.570156 -0.968644,1.839869 -1.477119,2.82159 -0.508471,0.98172 -1.053561,1.957066 -1.211307,2.167434 -0.157746,0.210369 -0.721339,1.099655 -1.252432,1.976191 -0.531092,0.876536 -1.074761,1.593702 -1.208151,1.593702 -0.133392,0 -0.24253,0.113754 -0.24253,0.252786 0,0.25078 -1.332946,1.871545 -2.925038,3.556633 -2.232713,2.363126 -5.864412,5.501594 -8.032424,6.941522 -0.49373,0.32792 -1.109556,0.77491 -1.368498,0.9933 -0.450458,0.37992 -2.745004,1.69389 -6.292117,3.60318 -1.72954,0.93095 -7.41765,3.31208 -8.70846,3.6455 -0.4129,0.10666 -0.88586,0.27728 -1.05102,0.37917 -0.16516,0.10189 -1.31377,0.4515 -2.55248,0.77692 -1.2387,0.32542 -2.9954,0.78844 -3.90379,1.02893 -1.81184,0.4797 -3.80698,0.86936 -6.23027,1.2168 -1.24483,0.17849 -1.65068,0.14926 -1.93258,-0.13917 z m 31.482225,-7.14728 c -0.07635,-0.10518 0.950378,-0.99447 2.281609,-1.97619 3.777914,-2.78603 7.596773,-6.649707 10.785767,-10.912357 0.441207,-0.589754 0.812818,-1.266313 0.825802,-1.503466 0.01297,-0.237153 0.147041,-0.49597 0.297913,-0.575148 0.399088,-0.20944 2.728606,-4.461888 2.728606,-4.980966 0,-0.152875 0.189433,-0.532095 0.42096,-0.842714 0.231528,-0.310619 0.509661,-0.966375 0.618072,-1.457235 0.108412,-0.49086 0.31131,-1.121966 0.450888,-1.402458 1.219067,-2.449808 1.950259,-8.216362 1.663279,-13.117511 -0.257641,-4.400172 -1.232408,-7.80818 -3.343659,-11.690222 -0.555888,-1.022131 -1.010707,-1.923463 -1.010707,-2.002956 0,-0.07949 -0.405393,-0.654601 -0.900874,-1.278017 -0.495481,-0.623413 -0.900875,-1.195929 -0.900875,-1.272253 0,-0.07633 -0.844134,-1.13198 -1.875855,-2.345897 -2.173264,-2.557047 -8.580087,-8.19944 -9.3103,-8.19944 -0.440729,0 -2.326965,1.977998 -2.326965,2.440168 0,0.09947 -0.374259,0.709897 -0.831687,1.356514 -0.457429,0.646617 -1.145721,1.864147 -1.529544,2.705621 -0.383821,0.841475 -0.881936,1.874194 -1.106926,2.294931 -0.376791,0.704618 -1.064779,2.658104 -2.065509,5.864823 -0.77214,2.474229 -1.38557,7.655811 -1.37931,11.650849 0.003,2.200594 -0.11797,4.066281 -0.26981,4.145969 -0.43966,0.230737 -1.22538,-0.601053 -1.22538,-1.297233 0,-0.349816 -0.15692,-0.885012 -0.34872,-1.189325 -0.19179,-0.30431 -0.66472,-1.874533 -1.05095,-3.489381 -1.32624,-5.545035 -0.82461,-10.615993 1.76605,-17.853136 0.56154,-1.568688 2.42904,-4.996122 3.68184,-6.757297 0.399052,-0.560983 0.867309,-1.249462 1.040574,-1.529954 1.056852,-1.710919 3.52875,-4.403496 4.211523,-4.58751 0.802241,-0.216212 1.544529,0.156287 4.512881,2.264678 3.366052,2.390875 7.629955,6.028417 9.298615,7.932663 0.737372,0.841475 1.548159,1.709257 1.801749,1.928403 0.253594,0.219148 0.731339,0.850254 1.06166,1.402457 0.330321,0.552207 0.714154,1.074569 0.85296,1.160807 0.456389,0.283546 3.501268,5.361769 3.501268,5.839385 0,0.14799 0.194264,0.523214 0.431699,0.833833 0.57089,0.746852 1.267194,2.582574 1.519947,4.007158 0.111972,0.631106 0.427753,1.778571 0.70173,2.549923 0.729285,2.053211 0.725805,12.752273 -0.0048,14.789554 -0.276625,0.771352 -0.594709,1.976191 -0.706853,2.677419 -0.31212,1.951666 -1.626253,5.160022 -2.899624,7.079214 -0.443159,0.667914 -0.899139,1.47114 -1.013295,1.784946 -0.269251,0.740154 -3.076436,4.324629 -4.540634,5.797898 -1.615151,1.625161 -4.76775,4.281566 -6.667992,5.618503 -1.780104,1.25241 -5.859472,3.56122 -6.292225,3.56122 -0.150509,0 -0.441876,0.17212 -0.647483,0.38249 -0.385346,0.39427 -1.958994,0.53073 -2.20541,0.19124 z"
           style="fill:#a2e3e7;stroke-width:0.276717" />
        <path
           id="path1883"
           d="m -126.22061,111.53826 c 0.11278,-0.15495 0.40679,-0.28173 0.65335,-0.28173 0.24656,0 0.94802,-0.21564 1.55881,-0.47921 0.61078,-0.26356 1.61922,-0.66206 2.24099,-0.88556 2.1799,-0.78357 3.097,-1.14613 5.92637,-2.34288 1.56903,-0.66365 3.20673,-1.41765 3.63935,-1.67556 0.43262,-0.2579 1.10828,-0.58624 1.50146,-0.72964 0.78433,-0.28607 1.15583,-0.47946 3.40261,-1.77129 2.25654,-1.29745 3.30053,-1.91802 3.46824,-2.0616 0.0826,-0.0707 1.16363,-0.80601 2.40234,-1.634034 4.743546,-3.170873 10.425212,-8.644767 13.25677,-12.771989 1.483461,-2.162266 2.958971,-4.61521 2.958971,-4.919108 0,-1.127836 -7.600164,-2.771327 -13.963558,-3.019537 -3.685303,-0.143749 -4.979383,-0.05757 -10.059763,0.669944 -5.96359,0.85399 -14.44528,4.669202 -19.94264,8.970543 -3.29195,2.575749 -3.29238,2.577424 -0.90373,3.516239 6.46439,2.540718 20.61446,4.326921 26.20791,3.308301 0.81802,-0.148972 2.07463,-0.235031 2.79247,-0.191244 l 1.30517,0.07961 -1.20117,0.606382 c -3.06126,1.545412 -7.44014,2.340809 -12.94584,2.351534 -6.4575,0.01258 -13.85654,-1.201212 -20.68681,-3.393626 -3.6734,-1.179105 -5.2551,-1.826926 -5.2551,-2.152342 0,-0.390013 1.64393,-2.062581 4.34849,-4.424236 11.52435,-10.063216 25.38427,-14.523393 40.402826,-13.001795 3.295712,0.333904 9.581637,1.652646 11.102911,2.329308 0.24774,0.110195 1.146579,0.443047 1.997422,0.739672 0.850843,0.296622 1.828082,0.793393 2.171646,1.103933 l 0.624663,0.564617 -0.619832,1.390965 c -3.183204,7.143462 -8.226169,13.183503 -15.52722,18.597203 -1.625695,1.20545 -6.763956,4.34061 -7.113886,4.34061 -0.0664,0 -0.70184,0.33205 -1.41206,0.73788 -2.85366,1.63066 -9.71783,4.1387 -14.4923,5.29521 -4.96219,1.20198 -8.23295,1.6749 -7.83886,1.13343 z m 32.350855,-7.64334 c 0.05505,-0.122 1.520205,-1.48462 3.255893,-3.02803 5.027956,-4.470975 8.224821,-8.593951 11.525148,-14.863908 0.477142,-0.906475 0.979689,-1.992378 1.116772,-2.413115 0.13708,-0.420737 0.533808,-1.625576 0.881617,-2.677419 1.273915,-3.85258 1.941076,-8.479882 1.695287,-11.758157 -0.212846,-2.838878 -0.688607,-5.863003 -1.095016,-6.960334 -1.817298,-4.90683 -2.938824,-7.176621 -4.707313,-9.52686 -0.556086,-0.739013 -1.011067,-1.403648 -1.011067,-1.476966 0,-0.07332 -0.137434,-0.271898 -0.305411,-0.441287 -0.167977,-0.169387 -1.002923,-1.111203 -1.855436,-2.092924 -1.884588,-2.170216 -8.400626,-7.777265 -9.038082,-7.777265 -0.639924,0 -1.804527,1.243462 -2.925825,3.123948 -0.522567,0.876375 -1.050663,1.708156 -1.173545,1.848402 -0.387538,0.442292 -2.336866,4.584678 -2.555827,5.431211 -0.11526,0.44564 -0.33431,0.875713 -0.48676,0.955722 -0.15246,0.08001 -0.27719,0.411136 -0.27719,0.735841 0,0.324705 -0.19436,1.058144 -0.43191,1.629863 -0.9517,2.290516 -1.4834,5.836057 -1.65096,11.009267 -0.17179,5.303731 -0.44386,6.285451 -1.07864,3.892136 -0.17985,-0.678111 -0.42671,-1.369918 -0.54857,-1.537351 -0.44382,-0.609786 -1.13684,-5.352849 -1.15304,-7.891443 -0.0506,-7.932615 3.70337,-17.026672 9.740413,-23.596213 0.918193,-0.999183 1.933163,-1.240284 2.683619,-0.637481 0.218249,0.175307 1.410298,1.004281 2.649001,1.842164 9.84435,6.658915 17.035404,16.07206 18.803014,24.613288 1.486518,7.182981 1.263768,12.705204 -0.776566,19.25192 -0.816403,2.619551 -1.593368,4.326607 -3.075574,6.757296 -1.84098,3.019048 -2.282628,3.637922 -3.975119,5.570284 -2.179318,2.488184 -8.786261,7.944311 -9.619945,7.944311 -0.107093,0 -0.65284,0.29671 -1.21277,0.65937 -0.897157,0.58107 -3.079318,1.63556 -3.384622,1.63556 -0.06142,0 -0.06663,-0.0998 -0.01156,-0.22183 z"
           style="fill:#68ccce;stroke-width:0.276717" />
        <path
           id="path1881"
           d="m -125.45042,111.51153 c 0,-0.14025 0.37161,-0.25324 0.8258,-0.25109 0.64351,0.003 0.72637,0.0585 0.37537,0.25109 -0.58753,0.32241 -1.20117,0.32241 -1.20117,0 z m 1.89902,-0.58264 c -0.19929,-0.27381 0.44454,-0.68262 1.08416,-0.68842 0.44562,-0.004 1.01667,-0.21867 6.32586,-2.37758 4.17727,-1.69862 7.22037,-3.28248 12.91288,-6.72084 4.857291,-2.933869 10.944053,-8.433836 14.486383,-13.089817 1.716553,-2.256208 3.831059,-5.694828 3.831059,-6.230085 0,-0.326247 -2.330437,-1.419685 -3.025768,-1.419685 -0.224128,0 -0.952548,-0.1599 -1.618712,-0.355337 -3.182205,-0.933572 -6.020113,-1.25138 -11.270972,-1.262191 -5.28999,-0.01089 -7.61877,0.255734 -10.97068,1.256061 -0.66616,0.198808 -1.38896,0.361467 -1.60622,0.361467 -1.2885,0 -9.07467,3.489017 -12.11388,5.428279 -3.09553,1.975199 -6.04471,4.241282 -6.53763,5.023369 -0.4402,0.698449 0.36731,1.091686 4.63726,2.258204 5.75556,1.572377 8.1614,2.006879 14.42934,2.605966 3.20393,0.30623 9.1822,0.127539 10.12906,-0.302758 0.30619,-0.139152 1.05774,-0.217679 1.6701,-0.174506 l 1.11338,0.0785 -1.05102,0.506956 c -2.56402,1.236746 -8.65742,2.41467 -12.52685,2.421583 -5.56856,0.0099 -16.81128,-1.945666 -21.85654,-3.801841 -0.33032,-0.121527 -1.37528,-0.491108 -2.32213,-0.821292 -0.94685,-0.330185 -1.72386,-0.737813 -1.72668,-0.905838 -0.008,-0.486576 2.65766,-3.064959 5.80758,-5.6171 5.6499,-4.577683 10.76154,-7.375033 17.45989,-9.554947 1.65161,-0.537496 3.54344,-1.043039 4.20409,-1.123425 0.66064,-0.08039 1.87682,-0.334652 2.70262,-0.565032 2.26476,-0.63182 14.403004,-0.612979 17.567056,0.02727 2.53356,0.512667 6.150013,1.392248 7.056852,1.716346 4.385461,1.567325 5.255102,1.967773 5.255102,2.419831 0,0.766818 -2.844962,5.973062 -4.736478,8.667693 -1.434399,2.043432 -5.486663,6.510905 -7.391862,8.149259 -2.407399,2.070216 -6.190829,4.7474 -8.62107,6.10033 -1.22259,0.68062 -2.57482,1.44456 -3.00495,1.69763 -1.23314,0.72553 -8.62487,3.68356 -10.77917,4.31362 -1.07354,0.31397 -2.22216,0.6757 -2.55248,0.80385 -1.95314,0.75771 -6.68209,1.55576 -6.95958,1.17449 z m 30.832762,-7.73875 c 0,-0.0889 0.84457,-0.87435 1.876822,-1.74545 2.330214,-1.96643 3.456326,-3.030758 4.592172,-4.34023 0.486602,-0.560983 0.961969,-1.077343 1.056372,-1.147466 0.223666,-0.166143 2.048613,-2.583941 3.175709,-4.207373 1.0427,-1.501866 3.112336,-5.101193 3.112336,-5.412694 0,-0.119239 0.270263,-0.666937 0.600583,-1.217106 0.330321,-0.550169 0.600583,-1.198765 0.600583,-1.441324 0,-0.242561 0.123372,-0.505767 0.274164,-0.584901 0.150788,-0.07913 0.363569,-0.630953 0.472845,-1.226263 0.109273,-0.59531 0.381034,-1.541367 0.60391,-2.102351 0.222879,-0.560983 0.632012,-2.339554 0.909187,-3.95238 0.802649,-4.670442 0.348317,-10.93148 -1.066744,-14.700534 -1.110412,-2.957615 -2.082966,-5.109975 -2.690279,-5.953844 -0.151395,-0.210368 -0.579743,-0.898848 -0.951882,-1.529954 -0.634168,-1.075483 -3.712174,-5.074497 -4.121571,-5.354838 -0.102405,-0.07012 -0.721315,-0.701229 -1.375359,-1.402458 -0.654044,-0.701229 -2.081054,-2.020814 -3.171136,-2.932411 -4.774435,-3.992693 -5.135049,-4.09316 -6.635672,-1.848695 -0.539161,0.806414 -1.089602,1.504455 -1.223207,1.551204 -0.133603,0.04675 -0.242915,0.201475 -0.242915,0.343837 0,0.142362 -0.523877,1.194206 -1.164173,2.337429 -1.328118,2.371309 -2.768487,5.703489 -3.433617,7.943413 -1.35148,4.551312 -1.48735,5.436245 -1.6339,10.641454 -0.0824,2.925843 -0.26632,5.224958 -0.41193,5.148545 -0.1447,-0.07594 -0.26309,-0.423861 -0.26309,-0.773165 0,-0.349301 -0.18374,-0.944948 -0.40831,-1.32366 -0.47745,-0.805181 -1.09314,-5.153308 -1.09314,-7.720045 0,-2.4407 0.51411,-6.393672 1.0919,-8.395556 1.5945,-5.524464 5.288376,-12.00659 8.667572,-15.210093 l 1.201166,-1.138716 1.525535,0.970872 c 3.622372,2.30533 11.405224,8.789844 11.807392,9.837681 0.06606,0.172102 0.201187,0.370287 0.300292,0.44041 0.196171,0.138803 1.095058,1.208656 2.423187,2.88408 0.465771,0.587566 1.41265,2.043646 2.104176,3.235736 0.69153,1.192089 1.381483,2.366785 1.533232,2.610435 0.680656,1.092877 1.75261,4.015629 2.409362,6.569288 0.162308,0.631106 0.446222,1.663825 0.630922,2.294931 0.184697,0.631106 0.396217,2.910566 0.47004,5.06547 0.131531,3.839371 0.0498,4.558386 -1.119853,9.85158 -1.162951,5.262868 -4.66057,11.511941 -8.841304,15.796442 -1.646973,1.687855 -3.892617,3.587138 -5.894585,4.98543 -0.903572,0.63111 -1.6879,1.23353 -1.742953,1.33871 -0.05506,0.10519 -0.28482,0.19125 -0.510588,0.19125 -0.225771,0 -0.518556,0.14875 -0.650633,0.33056 -0.215904,0.2972 -2.332052,1.45438 -2.659637,1.45438 -0.07314,0 -0.132981,-0.0727 -0.132981,-0.16163 z"
           style="fill:#5db7c6;stroke-width:0.276717" />
        <path
           id="path1879"
           d="m -123.04809,110.77419 c 0,-0.12504 0.34869,-0.30166 0.77485,-0.39248 0.77551,-0.16528 4.38278,-1.50159 5.23099,-1.93781 0.24774,-0.12741 1.03802,-0.4632 1.75618,-0.7462 3.19794,-1.26017 8.86971,-4.32252 13.11303,-7.08009 2.2848,-1.484806 6.444207,-4.806992 8.408219,-6.715777 2.409659,-2.341903 4.949973,-5.164436 4.949973,-5.499894 0,-0.10013 0.204808,-0.374226 0.455131,-0.609102 0.250323,-0.234879 1.197626,-1.66791 2.105116,-3.184518 2.180621,-3.644266 2.331547,-3.50251 -5.563163,-5.225078 -5.631559,-1.228765 -16.275256,-0.883765 -20.655236,0.669508 -0.54237,0.192343 -1.18128,0.349714 -1.41979,0.349714 -0.23852,0 -1.44387,0.401613 -2.67856,0.892473 -1.23468,0.490861 -2.36972,0.892473 -2.52229,0.892473 -0.15258,0 -0.44563,0.17212 -0.65124,0.382489 -0.2056,0.210369 -0.56568,0.382488 -0.80017,0.382488 -0.23449,0 -0.58955,0.118791 -0.78903,0.263981 -0.33831,0.246233 -2.69611,1.580567 -3.8169,2.160065 -0.27296,0.141139 -0.7106,0.428005 -0.97252,0.637481 -0.26191,0.209479 -0.92669,0.667736 -1.47726,1.01835 -1.87943,1.19684 -4.75636,3.718459 -4.75636,4.168933 0,0.294499 0.49207,0.626279 1.42638,0.961729 0.78451,0.281667 1.69665,0.622827 2.02697,0.758131 0.78316,0.320793 6.05304,1.577558 8.40816,2.005183 5.02068,0.911618 7.31974,1.089544 12.31196,0.952827 2.80772,-0.07689 5.51035,-0.201439 6.00583,-0.276771 0.49548,-0.07533 0.66439,-0.0753 0.37536,6.6e-5 -0.28903,0.07537 -0.52551,0.277128 -0.52551,0.448351 0,0.759624 -7.18718,1.951948 -11.6852,1.938525 -3.6679,-0.01094 -11.84504,-1.047858 -15.04075,-1.907258 -4.16668,-1.120521 -7.19652,-2.009054 -8.25801,-2.421746 -0.66065,-0.256849 -1.45229,-0.534798 -1.75921,-0.617668 -0.53702,-0.144997 -0.53799,-0.176993 -0.0257,-0.849306 0.51112,-0.670813 2.80898,-2.777139 5.98902,-5.489816 1.84231,-1.571551 6.69043,-4.673578 9.40096,-6.015118 4.01131,-1.98535 8.92468,-3.663543 12.76671,-4.36056 0.69029,-0.125232 1.86316,-0.36801 2.60638,-0.53951 2.07815,-0.479539 13.868857,-0.408416 15.61516,0.09419 0.743222,0.213907 2.026968,0.468561 2.85277,0.565891 0.825802,0.09733 1.636589,0.267727 1.80175,0.378651 0.16516,0.110927 0.77325,0.27964 1.351312,0.374918 1.03272,0.170215 1.466128,0.31221 4.236972,1.388114 0.761311,0.295615 1.533562,0.537481 1.716112,0.537481 0.685317,0 1.007563,0.998759 0.641636,1.988677 -0.474127,1.282629 -2.831737,5.445305 -4.144996,7.318542 -3.100952,4.423206 -9.53777,10.546372 -13.560512,12.899731 -0.578061,0.33818 -1.118586,0.6762 -1.201166,0.75118 -0.706028,0.64098 -6.623108,3.57683 -9.459188,4.69332 -1.32128,0.52015 -2.66335,1.06591 -2.98237,1.21279 -0.31903,0.14687 -0.92712,0.35937 -1.35132,0.4722 -0.42419,0.11284 -1.91877,0.55784 -3.32127,0.98889 -1.40251,0.43105 -2.77215,0.78373 -3.04366,0.78373 -0.27151,0 -0.88071,0.17142 -1.35378,0.38092 -0.94491,0.41846 -2.51174,0.51622 -2.51174,0.15671 z m 31.230326,-8.4252 c 0,-0.1497 0.129684,-0.27218 0.288187,-0.27218 0.158506,0 0.800379,-0.47607 1.426385,-1.05794 0.626009,-0.58186 1.351261,-1.241652 1.611674,-1.466201 0.26041,-0.224549 1.273341,-1.26887 2.250958,-2.320713 0.977617,-1.051843 1.870931,-1.972152 1.985144,-2.045128 0.114213,-0.07298 0.353251,-0.417218 0.531197,-0.764977 0.177944,-0.347761 0.588458,-0.976531 0.912247,-1.397268 1.574222,-2.045554 5.107911,-8.147326 5.107911,-8.820044 0,-0.188447 0.185596,-0.805452 0.412436,-1.371124 1.017406,-2.537123 1.222646,-3.189834 1.606289,-5.108371 0.554906,-2.774987 0.978768,-7.85208 0.798305,-9.562212 -0.437246,-4.143436 -1.700047,-8.399939 -3.450368,-11.630079 -0.312307,-0.576344 -0.567828,-1.164713 -0.567828,-1.307489 0,-0.142772 -0.202697,-0.402434 -0.450437,-0.577024 -0.247741,-0.174591 -0.450437,-0.465491 -0.450437,-0.646447 0,-0.279058 -1.546313,-2.489066 -2.313113,-3.305934 -0.131651,-0.140246 -0.42127,-0.55493 -0.6436,-0.921519 -0.22233,-0.366588 -0.695289,-0.941978 -1.051021,-1.278641 -0.355731,-0.336664 -1.271029,-1.241566 -2.033994,-2.010893 -1.807711,-1.822782 -5.733701,-5.070509 -6.864173,-5.6783 -0.488424,-0.262597 -1.128901,-0.409637 -1.423286,-0.326755 -0.717303,0.201952 -3.666235,4.705884 -5.520274,8.431162 -0.514968,1.034708 -1.220378,2.83353 -1.499928,3.824884 -0.15819,0.560983 -0.37539,1.192089 -0.48268,1.402458 -0.10727,0.210369 -0.3567,1.070968 -0.55428,1.912442 -0.19758,0.841475 -0.52756,2.218434 -0.7333,3.059908 -0.20718,0.847368 -0.3878,3.540466 -0.40484,6.036341 -0.0169,2.47851 -0.1361,4.451118 -0.26481,4.383568 -0.12871,-0.06755 -0.23403,-0.525855 -0.23403,-1.018457 0,-0.492599 -0.18912,-1.056229 -0.42027,-1.252507 -0.55718,-0.473138 -0.9098,-5.310294 -0.70496,-9.670678 0.14755,-3.140921 0.53157,-5.055411 1.66395,-8.295471 0.73792,-2.111382 3.560979,-7.426213 4.04073,-7.60727 0.123871,-0.04675 0.225219,-0.195758 0.225219,-0.331133 0,-0.135374 0.540525,-0.937151 1.201166,-1.781728 0.660642,-0.844576 1.203758,-1.613539 1.206926,-1.708806 0.01022,-0.307279 1.961628,-2.085655 2.288585,-2.085655 0.17401,0 0.596163,0.200806 0.938114,0.446236 0.341951,0.24543 1.673333,1.192089 2.958628,2.103687 2.30054,1.631665 5.851157,4.546318 7.322033,6.010557 1.589254,1.582084 3.827817,4.110483 4.611968,5.209104 0.450459,0.631106 0.945348,1.319586 1.099752,1.529954 0.773986,1.054516 3.297027,5.71922 3.297027,6.095686 0,0.237666 0.117594,0.541127 0.261323,0.67436 0.400171,0.370955 1.506503,3.69937 1.831688,5.510667 0.815983,4.545067 1.000497,7.286719 0.659552,9.800138 -0.739781,5.453604 -1.009569,6.636057 -2.205312,9.665692 -0.166055,0.420737 -0.441122,1.195277 -0.611258,1.721198 -0.170136,0.525922 -0.417294,0.956221 -0.549242,0.956221 -0.131948,0 -0.328895,0.344049 -0.43766,0.764552 -0.269302,1.041156 -1.98563,3.76174 -4.019463,6.371324 -2.030304,2.605058 -8.901224,8.514025 -10.342161,8.894225 -0.194027,0.0512 -0.488424,0.2353 -0.654218,0.40913 -0.422688,0.44317 -1.650451,0.74627 -1.650451,0.40745 z"
           style="fill:#50adb5;stroke-width:0.276717" />
        <path
           id="path1877"
           d="m -119.74488,109.88302 c 0,-0.0542 0.39826,-0.14819 0.88502,-0.20886 0.48676,-0.0607 0.81661,-0.0163 0.733,0.0986 -0.1488,0.20444 -1.61802,0.3046 -1.61802,0.1103 z m 2.10204,-0.65934 c 0,-0.11373 0.37026,-0.2857 0.8228,-0.38215 0.45253,-0.0964 0.89171,-0.25497 0.97594,-0.35227 0.27636,-0.31924 1.9235,-1.15429 3.68158,-1.86647 0.94968,-0.38469 1.72668,-0.81906 1.72668,-0.96526 0,-0.1462 0.15124,-0.26582 0.33608,-0.26582 0.18485,0 1.16455,-0.42666 2.17712,-0.94814 7.4625,-3.84323 16.366607,-11.365136 20.308919,-17.156314 0.716036,-1.051844 1.414364,-1.950692 1.551838,-1.997439 0.137473,-0.04675 0.24995,-0.247973 0.24995,-0.447162 0,-0.19919 0.270263,-0.790347 0.600584,-1.313685 0.33032,-0.523336 0.600583,-1.273572 0.600583,-1.667188 0,-0.632595 -0.220673,-0.799745 -1.901008,-1.439932 -1.045555,-0.398344 -2.768478,-0.80855 -3.828717,-0.911569 -1.06024,-0.10302 -2.275832,-0.338668 -2.701312,-0.523665 -1.257351,-0.546681 -8.345477,-0.819839 -12.052527,-0.464474 -1.76924,0.169603 -3.35601,0.381431 -3.52615,0.470724 -0.17015,0.08929 -1.15496,0.272643 -2.18846,0.407442 -1.0335,0.134796 -2.41961,0.429165 -3.08025,0.654147 -0.66064,0.224985 -1.47143,0.496322 -1.80175,0.602975 -1.77093,0.571792 -6.23955,2.545491 -7.82585,3.456515 -4.22688,2.427542 -9.14063,6.197178 -9.14063,7.01234 0,0.531429 1.31524,1.402406 2.49856,1.654599 0.44568,0.09498 0.88459,0.274734 0.97536,0.399443 0.0908,0.124709 0.45716,0.226744 0.81421,0.226744 0.35705,0 2.13956,0.394103 3.96114,0.875784 5.03365,1.331052 8.33534,1.765013 14.72304,1.935144 3.13805,0.08358 5.34498,0.173788 4.9043,0.20047 -1.11171,0.06731 -1.77891,0.314176 -1.58165,0.585213 0.0914,0.12555 -0.4837,0.229141 -1.27796,0.230199 -0.79426,0.001 -2.32246,0.125354 -3.396,0.27621 -2.0619,0.28974 -11.54492,-0.140717 -12.16932,-0.552395 -0.16929,-0.111615 -1.04764,-0.282498 -1.95189,-0.379737 -0.90426,-0.09724 -2.06326,-0.32115 -2.57556,-0.497582 -0.5123,-0.176431 -1.4913,-0.4011 -2.17554,-0.499262 -0.68424,-0.09816 -1.31306,-0.273257 -1.39737,-0.389098 -0.0843,-0.11584 -0.7269,-0.292359 -1.42796,-0.392262 -0.70107,-0.09991 -1.54121,-0.339382 -1.86699,-0.532172 -0.32578,-0.192792 -0.81598,-0.350527 -1.08933,-0.350527 -0.27335,0 -0.65349,-0.160118 -0.84476,-0.355814 -0.19126,-0.195699 -0.80975,-0.429412 -1.37441,-0.519363 -1.55822,-0.248225 -1.2247,-0.713323 3.30024,-4.602354 3.85211,-3.310751 5.55569,-4.500158 10.05977,-7.023521 1.91843,-1.074782 6.38235,-2.935851 7.67113,-3.198198 0.48795,-0.09933 1.02231,-0.261379 1.18747,-0.36012 0.41861,-0.25026 4.0383,-1.137993 6.9067,-1.693873 1.83725,-0.356049 3.67377,-0.467105 7.80758,-0.472134 5.337698,-0.0065 6.217904,0.08365 11.411083,1.168551 3.105237,0.648716 3.62263,0.782686 3.888776,1.006934 0.156902,0.132203 0.536882,0.240368 0.844398,0.240368 0.777437,0 3.625354,1.174847 4.235343,1.7472 0.473049,0.44386 0.46356,0.565078 -0.154729,1.976502 -0.362277,0.827003 -0.838227,1.684795 -1.057666,1.906207 -0.219438,0.221413 -0.398979,0.534087 -0.398979,0.694834 0,0.697631 -4.364888,6.934858 -4.853099,6.934858 -0.138521,0 -0.251857,0.122192 -0.251857,0.271541 0,0.431286 -3.112904,3.778746 -3.528426,3.794293 -0.206451,0.0077 -0.375365,0.144859 -0.375365,0.304747 0,0.241934 -2.578507,2.463837 -3.966683,3.418098 -0.21315,0.146521 -1.130766,0.77884 -2.039148,1.405148 -1.847631,1.27391 -5.808898,3.55579 -6.172718,3.55579 -0.12994,0 -0.4496,0.15494 -0.71034,0.34431 -0.56357,0.40929 -4.18063,2.00801 -5.87933,2.59863 -0.66064,0.22969 -1.539,0.56622 -1.9519,0.74784 -0.4129,0.18162 -1.22369,0.41408 -1.80175,0.51659 -0.57806,0.10251 -1.18615,0.27595 -1.35131,0.38542 -0.48769,0.32325 -2.55248,0.73916 -2.55248,0.51414 z m 30.32945,-10.164447 c 0,-0.133519 0.203949,-0.309219 0.453224,-0.390444 0.249272,-0.08123 0.418186,-0.237031 0.375364,-0.346234 -0.04282,-0.109205 0.53803,-0.886937 1.290782,-1.728294 0.752756,-0.841358 1.759252,-2.103473 2.236662,-2.804701 1.797614,-2.640372 2.577505,-3.856364 3.135548,-4.888897 0.316279,-0.585207 0.907133,-1.675299 1.313007,-2.422427 2.316912,-4.26495 3.800928,-10.737963 3.805379,-16.598393 0.0024,-3.281644 -0.94675,-8.066398 -2.111206,-10.641742 -0.348771,-0.771351 -0.74315,-1.689324 -0.876392,-2.039938 -0.406721,-1.070223 -1.012751,-2.13644 -1.577612,-2.775556 -0.295607,-0.334466 -0.537467,-0.775304 -0.537467,-0.979639 0,-0.204336 -0.27692,-0.676533 -0.615376,-1.04933 -0.338459,-0.372796 -1.262239,-1.538409 -2.052847,-2.590252 -1.587224,-2.111676 -5.091197,-5.46627 -8.223331,-7.872754 -3.370584,-2.589692 -3.829003,-2.359445 -7.37868,3.706047 -1.829554,3.126244 -4.271465,8.732862 -4.256935,9.773921 0.003,0.208931 -0.2757,1.528516 -0.61914,2.932412 -0.34344,1.403896 -0.77405,3.167795 -0.95689,3.919772 -0.29528,1.214343 -0.36318,1.299885 -0.60724,0.764977 -0.37996,-0.832797 -0.3057,-6.88762 0.10017,-8.167549 0.18269,-0.576112 0.44602,-1.984505 0.58517,-3.129765 0.15893,-1.308019 0.47996,-2.408984 0.86339,-2.960894 0.33572,-0.483236 0.94358,-1.624462 1.35082,-2.53606 1.13446,-2.539522 4.57449,-7.639781 6.244651,-9.258457 l 1.002097,-0.971206 1.801749,1.12063 c 0.990963,0.616346 1.98721,1.311569 2.213882,1.544939 0.226675,0.23337 0.534372,0.42431 0.683773,0.42431 0.368512,0 5.256874,4.184737 6.55377,5.610429 0.573794,0.630778 1.155164,1.21472 1.291935,1.297649 0.746138,0.452418 5.62253,7.138033 5.62253,7.708583 0,0.200993 0.19401,0.502164 0.431135,0.669274 0.237125,0.167109 0.517784,0.638829 0.623687,1.048268 0.105904,0.409438 0.317285,0.809894 0.46974,0.889903 0.152452,0.08001 0.277188,0.389335 0.277188,0.687393 0,0.481308 0.716744,2.036774 1.532874,3.326617 0.580773,0.917875 0.959242,4.771051 0.982073,9.998442 0.0276,6.321853 -0.324549,9.082143 -1.447684,11.347158 -0.452029,0.911597 -0.886479,1.944316 -0.965447,2.294931 -0.07897,0.350614 -0.524354,1.32596 -0.989746,2.167434 -1.997022,3.610793 -2.274134,4.086397 -2.451436,4.207373 -0.102771,0.07012 -0.552092,0.723189 -0.998493,1.451261 -0.446399,0.728069 -0.902962,1.359175 -1.014586,1.402458 -0.111622,0.04328 -0.59174,0.480306 -1.066927,0.971166 -1.750826,1.808571 -3.874491,3.666514 -4.795596,4.195549 -1.529935,0.878714 -1.697569,0.947014 -1.697569,0.691636 z"
           style="fill:#11b7b6;stroke-width:0.276717" />
        <path
           id="path1875"
           d="m -119.74488,109.88302 c 0,-0.0542 0.39826,-0.14819 0.88502,-0.20886 0.48676,-0.0607 0.81661,-0.0163 0.733,0.0986 -0.1488,0.20444 -1.61802,0.3046 -1.61802,0.1103 z m 2.10204,-0.65934 c 0,-0.11373 0.37026,-0.2857 0.8228,-0.38215 0.45253,-0.0964 0.89171,-0.25497 0.97594,-0.35227 0.27636,-0.31924 1.9235,-1.15429 3.68158,-1.86647 0.94968,-0.38469 1.72668,-0.81906 1.72668,-0.96526 0,-0.1462 0.19278,-0.26582 0.42839,-0.26582 0.54365,0 4.36725,-2.13801 7.67948,-4.29406 4.902736,-3.191367 11.881374,-9.631514 14.274373,-13.172914 0.473833,-0.701228 0.95114,-1.332334 1.060681,-1.402457 0.109537,-0.07012 0.294045,-0.385676 0.410018,-0.701229 0.11597,-0.315553 0.336879,-0.573733 0.490911,-0.573733 0.154028,0 0.280054,-0.172535 0.280054,-0.383411 0,-0.210879 0.270263,-0.811598 0.600584,-1.334936 0.683469,-1.082838 0.77825,-2.173878 0.222852,-2.565284 -0.61846,-0.435848 -2.951181,-1.101322 -4.877372,-1.391409 -0.990962,-0.149239 -1.870909,-0.358973 -1.955438,-0.466075 -0.22354,-0.283233 -5.688955,-0.750932 -9.005203,-0.770612 -3.0014,-0.01782 -7.86674,0.414577 -8.67965,0.771372 -0.26358,0.11569 -1.13976,0.29179 -1.94705,0.391334 -0.80729,0.09954 -1.95591,0.359608 -2.55248,0.577922 -0.59657,0.218315 -1.35493,0.482028 -1.68525,0.586031 -1.69066,0.53231 -6.22448,2.532013 -7.82585,3.451696 -4.17868,2.399858 -9.54019,6.515791 -9.37744,7.198892 0.1301,0.546097 3.7189,2.092952 4.8624,2.095805 0.34623,7.65e-4 0.99203,0.16217 1.43509,0.358455 0.44307,0.196286 1.25385,0.435695 1.80175,0.532019 0.5479,0.09632 1.60427,0.331628 2.34749,0.5229 3.07165,0.790504 7.26962,1.249689 12.76239,1.395983 3.13805,0.08358 5.34498,0.173788 4.9043,0.20047 -1.11171,0.06731 -1.77891,0.314176 -1.58165,0.585213 0.0914,0.12555 -0.4837,0.229141 -1.27796,0.230199 -0.79426,0.001 -2.32246,0.125354 -3.396,0.27621 -2.0619,0.28974 -11.54492,-0.140717 -12.16932,-0.552395 -0.16929,-0.111615 -1.04764,-0.282498 -1.95189,-0.379737 -0.90426,-0.09724 -2.06326,-0.32115 -2.57556,-0.497582 -0.5123,-0.176431 -1.4913,-0.4011 -2.17554,-0.499262 -0.68424,-0.09816 -1.31306,-0.273257 -1.39737,-0.389098 -0.0843,-0.11584 -0.7269,-0.292359 -1.42796,-0.392262 -0.70107,-0.09991 -1.54121,-0.339382 -1.86699,-0.532172 -0.32578,-0.192792 -0.81598,-0.350527 -1.08933,-0.350527 -0.27335,0 -0.65349,-0.160118 -0.84476,-0.355814 -0.19126,-0.195699 -0.80975,-0.429412 -1.37441,-0.519363 -1.55822,-0.248225 -1.2247,-0.713323 3.30024,-4.602354 3.74297,-3.216955 5.24654,-4.277447 9.67509,-6.82401 1.67316,-0.962124 6.90221,-3.172206 8.04211,-3.399037 0.49548,-0.09859 1.03601,-0.260051 1.20117,-0.358792 0.41861,-0.25026 4.0383,-1.137993 6.9067,-1.693873 1.83725,-0.356049 3.67377,-0.467105 7.80758,-0.472134 5.337698,-0.0065 6.217904,0.08365 11.411083,1.168551 3.105237,0.648716 3.62263,0.782686 3.888776,1.006934 0.156902,0.132203 0.536882,0.240368 0.844398,0.240368 0.777437,0 3.625354,1.174847 4.235343,1.7472 0.473049,0.44386 0.46356,0.565078 -0.154729,1.976502 -0.362277,0.827003 -0.838227,1.684795 -1.057666,1.906207 -0.219438,0.221413 -0.398979,0.534087 -0.398979,0.694834 0,0.697631 -4.364888,6.934858 -4.853099,6.934858 -0.138521,0 -0.251857,0.122192 -0.251857,0.271541 0,0.431286 -3.112904,3.778746 -3.528426,3.794293 -0.206451,0.0077 -0.375365,0.144859 -0.375365,0.304747 0,0.241934 -2.578507,2.463837 -3.966683,3.418098 -0.21315,0.146521 -1.130766,0.77884 -2.039148,1.405148 -1.847631,1.27391 -5.808898,3.55579 -6.172718,3.55579 -0.12994,0 -0.4496,0.15494 -0.71034,0.34431 -0.56357,0.40929 -4.18063,2.00801 -5.87933,2.59863 -0.66064,0.22969 -1.539,0.56622 -1.9519,0.74784 -0.4129,0.18162 -1.22369,0.41408 -1.80175,0.51659 -0.57806,0.10251 -1.18615,0.27595 -1.35131,0.38542 -0.48769,0.32325 -2.55248,0.73916 -2.55248,0.51414 z m 13.26024,-46.160694 c 0,-0.350614 0.0682,-0.494048 0.15147,-0.31874 0.0833,0.175307 0.0833,0.462173 0,0.63748 -0.0833,0.175308 -0.15147,0.03187 -0.15147,-0.31874 z m 0.57688,-1.678699 c 0.0144,-0.297053 0.0856,-0.357473 0.18143,-0.154058 0.0867,0.184071 0.0761,0.404002 -0.0237,0.488736 -0.0998,0.08473 -0.17075,-0.06587 -0.15772,-0.334678 z"
           style="fill:#0f98b1;stroke-width:0.276717" />
      </g>
      <text
         xml:space="preserve"
         style="font-style:normal;font-variant:normal;font-weight:normal;font-stretch:normal;font-size:40px;line-height:1.25;font-family:'Snap ITC';-inkscape-font-specification:'Snap ITC';fill:#000000;fill-opacity:1;stroke:none"
         x="188.92856"
         y="88.928574"
         id="text213"><tspan
           sodipodi:role="line"
           id="tspan211"
           x="188.92856"
           y="88.928574"><tspan
             style="font-size:73.3333px;fill:#0000ff"
             id="tspan215">T</tspan><tspan
             id="tspan24"
             style="fill:#0000ff">-</tspan><tspan
             style="fill:#4d4d4d"
             id="tspan217">CUIDO</tspan></tspan></text>
    </g>
  </g>
</svg>
